<?xml version="1.0" encoding="UTF-8"?>
<svg version="1.1" xmlns="http://www.w3.org/2000/svg" width="500" height="500">
<path d="M0 0 C165 0 330 0 500 0 C500 165 500 330 500 500 C335 500 170 500 0 500 C0 335 0 170 0 0 Z " fill="#FEFEFE" transform="translate(0,0)"/>
<path d="M0 0 C165 0 330 0 500 0 C500 165 500 330 500 500 C335 500 170 500 0 500 C0 335 0 170 0 0 Z M182 37 C181.27474121 37.21849609 180.54948242 37.43699219 179.80224609 37.66210938 C155.16620679 45.21027131 132.15474977 58.07214914 112 74 C111.030625 74.76441406 110.06125 75.52882812 109.0625 76.31640625 C104.29492652 80.14471593 99.78500182 84.05378077 95.54296875 88.45703125 C94 90 94 90 91 92.4375 C87.22673025 95.66050125 84.17245155 99.19305814 81 103 C80.53674316 103.5455957 80.07348633 104.09119141 79.59619141 104.65332031 C40.05910046 151.29834324 21.71658067 209.85441192 26.56884766 270.70947266 C31.09896074 319.10633205 50.91357593 365.96331222 84.52734375 401.3515625 C86.29908655 403.24925858 87.96137486 405.13680939 89.6015625 407.140625 C91.47799188 409.3776711 93.22322238 411.25334733 95.4375 413.125 C97.95737665 415.25756227 100.44459034 417.4031353 102.890625 419.62109375 C147.92227059 460.13033049 206.49262424 476.24086352 266 474 C286.43233946 472.61972862 305.62768784 467.45743739 325 461 C325 399.95 325 338.9 325 276 C332.26 276 339.52 276 347 276 C347 333.75 347 391.5 347 451 C366.39146425 444.53617858 383.45826175 430.7226756 398.55175781 417.28076172 C400.48562884 415.5705312 402.46550861 413.91599273 404.4375 412.25 C407.61655523 409.45404445 410.37714315 406.43256173 413.10546875 403.19921875 C414.443499 401.64600013 415.82609797 400.13065083 417.23828125 398.64453125 C445.25422893 369.10937748 462.21236691 329.53431179 470 290 C470.24556641 288.77821045 470.24556641 288.77821045 470.49609375 287.53173828 C480.90090381 233.26119493 467.36314228 173.28780346 436.83666992 127.53808594 C429.95016107 117.50692629 422.26924156 108.24955638 414.04296875 99.2890625 C412.63226004 97.70842139 411.27510155 96.07891982 409.96484375 94.4140625 C408.20911384 92.25692317 406.49419374 90.53553345 404.375 88.75 C401.32349259 86.15201938 398.36946218 83.48194479 395.4375 80.75 C338.13672695 29.16172733 254.57876151 14.62359633 182 37 Z " fill="#020202" transform="translate(0,0)"/>
<path d="M0 0 C165 0 330 0 500 0 C500 165 500 330 500 500 C423.44 500 346.88 500 268 500 C268 499.67 268 499.34 268 499 C269.63859985 498.7666394 269.63859985 498.7666394 271.31030273 498.52856445 C275.4516738 497.93533956 279.59046932 497.3254972 283.72875977 496.71118164 C285.50351152 496.44996761 287.27889077 496.19297401 289.05493164 495.94067383 C301.08166039 494.22840534 312.44937305 491.7642901 324 488 C325.5943689 487.49472778 325.5943689 487.49472778 327.22094727 486.97924805 C338.90648681 483.21683984 350.14078031 479.00313065 360.92773438 473.12451172 C363.21559523 471.88300758 365.52118386 470.67830979 367.828125 469.47265625 C384.32310665 460.7475789 399.03850135 450.34983572 413 438 C413.84691406 437.26394531 414.69382812 436.52789062 415.56640625 435.76953125 C426.25648814 426.34921832 436.36111677 416.35192093 445 405 C445.47904785 404.37561035 445.9580957 403.7512207 446.45166016 403.10791016 C487.60880231 349.1075863 504.71726667 282.20904983 496 215 C495.34127469 210.3263856 494.48328126 205.70678234 493.46386719 201.09765625 C493.13546416 199.61258321 492.81675734 198.1253506 492.50488281 196.63671875 C484.70869806 159.5724171 467.74770642 124.48908208 444 95 C443.52626953 94.41057617 443.05253906 93.82115234 442.56445312 93.21386719 C431.43594027 79.51312606 418.99622573 66.77260523 405 56 C404.03320312 55.21625 403.06640625 54.4325 402.0703125 53.625 C380.68297206 36.42236001 355.65598942 24.34065321 330 15 C329.29149902 14.73461426 328.58299805 14.46922852 327.85302734 14.19580078 C318.04634741 10.53097792 308.12052818 8.30124119 297.83740234 6.50146484 C295.91084105 6.16097638 293.98668568 5.80664257 292.06494141 5.43994141 C229.64536141 -6.37944676 163.82201864 8.16185515 111.0625 43.3125 C104.80234568 47.58950452 98.77711846 52.0862347 93 57 C91.96280038 57.8535465 90.92499713 58.70635982 89.88671875 59.55859375 C75.42200409 71.55453599 61.98103111 84.71153862 51 100 C50.54431641 100.63260742 50.08863281 101.26521484 49.61914062 101.91699219 C46.31142243 106.54551648 43.11992344 111.2431018 40 116 C39.61634277 116.58265625 39.23268555 117.1653125 38.83740234 117.765625 C16.77265117 151.71439081 4.77973427 190.9056122 1 231 C0.67 231 0.34 231 0 231 C0 154.77 0 78.54 0 0 Z " fill="#FEFEFE" transform="translate(0,0)"/>
<path d="M0 0 C0.33 0 0.66 0 1 0 C1.03440186 0.59611084 1.06880371 1.19222168 1.10424805 1.80639648 C4.28439823 53.60093559 22.66172984 102.29066902 55 143 C55.43747559 143.55461914 55.87495117 144.10923828 56.32568359 144.68066406 C67.31780553 158.4952576 79.98932805 171.25917468 94 182 C94.96550781 182.78246094 95.93101563 183.56492187 96.92578125 184.37109375 C135.55769852 215.45628248 184.02485527 232.00227549 233 236 C233 236.33 233 236.66 233 237 C156.11 237 79.22 237 0 237 C0 158.79 0 80.58 0 0 Z " fill="#FEFEFE" transform="translate(0,263)"/>
<path d="M0 0 C8.25 0 16.5 0 25 0 C25.06961877 21.2542465 25.12307159 42.50846527 25.15543652 63.76280308 C25.1708674 73.63284259 25.19188419 83.50280971 25.22631836 93.37280273 C25.25633692 101.98128067 25.27560242 110.58970614 25.28226548 119.19823498 C25.28615675 123.75113008 25.29522186 128.30387514 25.31719017 132.85672188 C25.33775274 137.15358526 25.34379445 141.45023869 25.33932304 145.74714661 C25.3401395 147.31310103 25.34598627 148.87906345 25.35761642 150.4449749 C25.49539737 169.97595272 21.980306 187.65732911 9 203 C7.06230606 204.95898728 5.27973191 206.4258994 3 208 C2.34 208 1.68 208 1 208 C-1.97487982 185.74807878 -1.06193685 163.12046893 -0.89946485 140.72541976 C-0.86468698 135.76475038 -0.83639089 130.80404374 -0.80735779 125.84333801 C-0.75161904 116.48356495 -0.69019293 107.12383852 -0.62663645 97.76411563 C-0.55446506 87.09396757 -0.48876646 76.42378257 -0.42356598 65.75358999 C-0.2894934 43.83567843 -0.14721082 21.91782692 0 0 Z " fill="#020202" transform="translate(205,123)"/>
<path d="M0 0 C54.45 0 108.9 0 165 0 C165 7.59 165 15.18 165 23 C110.55 23 56.1 23 0 23 C0 15.41 0 7.82 0 0 Z " fill="#0B0B0B" transform="translate(253,234)"/>
<path d="M0 0 C3.31232498 1.14140928 4.01213904 2.82329404 5.6875 5.859375 C12.45337037 17.17446014 22.12988498 24.2020256 34.76513672 28.22558594 C39.62224561 29.3148743 44.48483399 29.14531308 49.4375 29.046875 C50.48292969 29.04171875 51.52835937 29.0365625 52.60546875 29.03125 C57.93485645 28.97734975 63.06179437 28.71909525 68.3125 27.796875 C69.22855787 33.29322222 69.42269966 38.67437941 69.4375 44.234375 C69.44201172 44.95689453 69.44652344 45.67941406 69.45117188 46.42382812 C69.43621652 51.67315848 69.43621652 51.67315848 68.3125 52.796875 C44.82288807 57.2210702 22.32551052 52.77301082 2.40625 39.921875 C-4.70365455 34.65527904 -11.01174312 27.51023488 -14.78515625 19.453125 C-14.61891517 14.93136751 -11.75753782 11.9667622 -9.0625 8.484375 C-8.52753906 7.74380859 -7.99257812 7.00324219 -7.44140625 6.24023438 C-3.5000203 1.03779672 -3.5000203 1.03779672 0 0 Z " fill="#030303" transform="translate(114.6875,288.203125)"/>
</svg>
